<mxfile host="drawio-plugin" modified="2023-04-12T03:10:19.987Z" agent="5.0 (Windows NT 6.2; Win64; x64) AppleWebKit/537.36 (KHTML, like Gecko) Chrome/104.0.5112.102 Safari/537.36" version="20.5.3" etag="rJ5rvfRE_gqjyr0UykBY" type="embed"><diagram id="HEaNkH6Dc8aw8q-a6jQP" name="Page-1"><mxGraphModel dx="725" dy="519" grid="0" gridSize="10" guides="1" tooltips="1" connect="1" arrows="1" fold="1" page="1" pageScale="1" pageWidth="850" pageHeight="1100" background="#ffffff" math="0" shadow="0"><root><mxCell id="0"/><mxCell id="1" parent="0"/><mxCell id="2" value="USER" style="shape=umlActor;verticalLabelPosition=bottom;verticalAlign=top;html=1;outlineConnect=0;fillColor=#f5f5f5;fontColor=#333333;strokeColor=#666666;" vertex="1" parent="1"><mxGeometry x="320" y="210" width="40" height="70" as="geometry"/></mxCell><mxCell id="4" value="Login" style="ellipse;whiteSpace=wrap;html=1;fillColor=#f5f5f5;fontColor=#333333;strokeColor=#666666;" vertex="1" parent="1"><mxGeometry x="40" y="205" width="120" height="80" as="geometry"/></mxCell><mxCell id="6" value="Account Settings" style="ellipse;whiteSpace=wrap;html=1;fillColor=#f5f5f5;fontColor=#333333;strokeColor=#666666;" vertex="1" parent="1"><mxGeometry x="40" y="40" width="120" height="80" as="geometry"/></mxCell><mxCell id="7" value="Show Song, Singer, Band, Playlist" style="ellipse;whiteSpace=wrap;html=1;fillColor=#f5f5f5;fontColor=#333333;strokeColor=#666666;" vertex="1" parent="1"><mxGeometry x="280" y="40" width="120" height="80" as="geometry"/></mxCell><mxCell id="8" value="Detail Song" style="ellipse;whiteSpace=wrap;html=1;fillColor=#f5f5f5;fontColor=#333333;strokeColor=#666666;" vertex="1" parent="1"><mxGeometry x="520" y="40" width="120" height="80" as="geometry"/></mxCell><mxCell id="11" value="LogOut" style="ellipse;whiteSpace=wrap;html=1;fillColor=#f5f5f5;fontColor=#333333;strokeColor=#666666;" vertex="1" parent="1"><mxGeometry x="40" y="360" width="120" height="80" as="geometry"/></mxCell><mxCell id="12" value="Song management, PlayList management,MyPlayList management" style="ellipse;whiteSpace=wrap;html=1;fillColor=#f5f5f5;fontColor=#333333;strokeColor=#666666;" vertex="1" parent="1"><mxGeometry x="520" y="360" width="132" height="89" as="geometry"/></mxCell><mxCell id="14" value="" style="endArrow=classic;html=1;rounded=0;fontFamily=Times New Roman;fontColor=#000000;strokeColor=#000000;exitX=0.5;exitY=0.5;exitDx=0;exitDy=0;exitPerimeter=0;entryX=0.5;entryY=1;entryDx=0;entryDy=0;" edge="1" parent="1" source="2" target="7"><mxGeometry width="50" height="50" relative="1" as="geometry"><mxPoint x="100" y="260" as="sourcePoint"/><mxPoint x="300" y="150" as="targetPoint"/></mxGeometry></mxCell><mxCell id="15" value="" style="endArrow=classic;html=1;rounded=0;fontFamily=Times New Roman;fontColor=#000000;strokeColor=#000000;entryX=1;entryY=0.5;entryDx=0;entryDy=0;exitX=0.5;exitY=0.5;exitDx=0;exitDy=0;exitPerimeter=0;" edge="1" parent="1" source="2" target="4"><mxGeometry width="50" height="50" relative="1" as="geometry"><mxPoint x="310" y="270" as="sourcePoint"/><mxPoint x="310" y="160" as="targetPoint"/></mxGeometry></mxCell><mxCell id="16" value="" style="endArrow=classic;html=1;rounded=0;fontFamily=Times New Roman;fontColor=#000000;strokeColor=#000000;exitX=0.5;exitY=0.5;exitDx=0;exitDy=0;exitPerimeter=0;" edge="1" parent="1" source="2" target="6"><mxGeometry width="50" height="50" relative="1" as="geometry"><mxPoint x="120" y="280" as="sourcePoint"/><mxPoint x="320" y="170" as="targetPoint"/></mxGeometry></mxCell><mxCell id="17" value="" style="endArrow=classic;html=1;rounded=0;fontFamily=Times New Roman;fontColor=#000000;strokeColor=#000000;exitX=0.5;exitY=0.5;exitDx=0;exitDy=0;exitPerimeter=0;entryX=0;entryY=1;entryDx=0;entryDy=0;" edge="1" parent="1" source="2" target="8"><mxGeometry width="50" height="50" relative="1" as="geometry"><mxPoint x="130" y="290" as="sourcePoint"/><mxPoint x="330" y="180" as="targetPoint"/></mxGeometry></mxCell><mxCell id="18" value="" style="endArrow=classic;html=1;rounded=0;fontFamily=Times New Roman;fontColor=#000000;strokeColor=#000000;" edge="1" parent="1" target="11"><mxGeometry width="50" height="50" relative="1" as="geometry"><mxPoint x="342" y="243" as="sourcePoint"/><mxPoint x="340" y="190" as="targetPoint"/></mxGeometry></mxCell><mxCell id="19" value="" style="endArrow=classic;html=1;rounded=0;fontFamily=Times New Roman;fontColor=#000000;strokeColor=#000000;" edge="1" parent="1" target="12"><mxGeometry width="50" height="50" relative="1" as="geometry"><mxPoint x="340" y="244" as="sourcePoint"/><mxPoint x="350" y="200" as="targetPoint"/></mxGeometry></mxCell><mxCell id="27" value="" style="endArrow=classic;html=1;dashed=1;strokeColor=#000000;curved=1;entryX=0.5;entryY=1;entryDx=0;entryDy=0;exitX=0.5;exitY=0;exitDx=0;exitDy=0;" edge="1" parent="1" source="11" target="4"><mxGeometry width="50" height="50" relative="1" as="geometry"><mxPoint x="160" y="330" as="sourcePoint"/><mxPoint x="400" y="240" as="targetPoint"/></mxGeometry></mxCell><mxCell id="28" value="" style="endArrow=classic;html=1;dashed=1;strokeColor=#000000;curved=1;entryX=0.5;entryY=0;entryDx=0;entryDy=0;exitX=0.5;exitY=1;exitDx=0;exitDy=0;" edge="1" parent="1" source="6" target="4"><mxGeometry width="50" height="50" relative="1" as="geometry"><mxPoint x="70" y="170" as="sourcePoint"/><mxPoint x="110" y="370" as="targetPoint"/></mxGeometry></mxCell><mxCell id="29" value="" style="endArrow=classic;html=1;dashed=1;strokeColor=#000000;curved=1;exitX=1;exitY=0.5;exitDx=0;exitDy=0;entryX=0;entryY=0.5;entryDx=0;entryDy=0;" edge="1" parent="1" source="7" target="8"><mxGeometry width="50" height="50" relative="1" as="geometry"><mxPoint x="120" y="305" as="sourcePoint"/><mxPoint x="120" y="380" as="targetPoint"/></mxGeometry></mxCell><mxCell id="31" value="" style="endArrow=classic;html=1;dashed=1;strokeColor=#000000;curved=1;exitX=0.5;exitY=0;exitDx=0;exitDy=0;entryX=0.5;entryY=1;entryDx=0;entryDy=0;" edge="1" parent="1" source="12" target="8"><mxGeometry width="50" height="50" relative="1" as="geometry"><mxPoint x="140" y="325" as="sourcePoint"/><mxPoint x="140" y="400" as="targetPoint"/></mxGeometry></mxCell><mxCell id="35" value="Mô hình UseCase User" style="text;html=1;align=center;verticalAlign=middle;resizable=0;points=[];autosize=1;strokeColor=none;fillColor=none;fontSize=14;fontColor=#000000;" vertex="1" parent="1"><mxGeometry x="250" y="460" width="170" height="30" as="geometry"/></mxCell></root></mxGraphModel></diagram></mxfile>